<svg xmlns="http://www.w3.org/2000/svg" viewBox="0 0 100 100">
  <rect width="100" height="100" rx="22" fill="#2B211A"/>
  <circle cx="50" cy="50" r="42" fill="#F3E9D2" stroke="#2B211A" stroke-width="3"/>
  <circle cx="50" cy="50" r="37" fill="none" stroke="#2B211A" stroke-width="1.5" stroke-dasharray="2,2"/>
  <polygon points="50,15 56,50 50,46" fill="#9C3B23"/>
  <polygon points="50,15 44,50 50,46" fill="#3F7FC4"/>
  <polygon points="50,85 44,50 50,54" fill="#9C3B23"/>
  <polygon points="50,85 56,50 50,54" fill="#3F7FC4"/>
  <polygon points="85,50 50,44 54,50" fill="#B8862B"/>
  <polygon points="85,50 50,56 54,50" fill="#FBF5E6"/>
  <polygon points="15,50 50,56 46,50" fill="#B8862B"/>
  <polygon points="15,50 50,44 46,50" fill="#FBF5E6"/>
  <circle cx="50" cy="50" r="4" fill="#2B211A"/>
  <circle cx="50" cy="50" r="2" fill="#FBF5E6"/>
</svg>